<?xml version="1.0" standalone="yes"?>

<svg version="1.1" viewBox="0.0 0.0 407.0 603.0" fill="none" stroke="none" stroke-linecap="square" stroke-miterlimit="10" xmlns="http://www.w3.org/2000/svg" xmlns:xlink="http://www.w3.org/1999/xlink"><clipPath id="p.0"><path d="m0 0l407.0 0l0 603.0l-407.0 0l0 -603.0z" clip-rule="nonzero"></path></clipPath><g clip-path="url(#p.0)"><path fill="#000000" fill-opacity="0.0" d="m0 0l407.36746 0l0 603.9475l-407.36746 0z" fill-rule="nonzero"></path><path fill="#ffffff" d="m76.973755 213.16011c-4.736656 12.631668 -11.842087 24.670166 -18.94751 41.446182c-7.105423 16.776031 -17.56649 34.933502 -23.68504 59.20999c-6.1185455 24.276459 -12.63167 58.81714 -13.026245 86.44882c-0.39457512 27.631653 1.5796146 55.26245 10.6587925 79.34119c9.07918 24.078735 22.500437 49.341644 43.81627 65.131256c21.315842 15.789551 43.81584 25.066467 84.078735 29.606262c40.26291 4.539856 119.9987 12.829834 157.4987 -2.3674316c37.5 -15.197266 59.408997 -44.210876 67.50131 -88.816284c8.092285 -44.605408 -12.039368 -132.63211 -18.94751 -178.81625c-6.908142 -46.184174 -16.185486 -56.052063 -22.501312 -98.28873c-6.3158264 -42.23665 -10.262024 -132.03894 -15.393707 -155.13123c-5.1316833 -23.092302 -7.10672 -3.3565178 -15.396332 16.577427c-8.289581 19.933945 -21.167084 85.70735 -34.341187 103.026245c-13.174103 17.318893 -34.736237 0.7882843 -44.70343 0.887146c-9.967194 0.098861694 -3.2082214 0.24845886 -15.099731 -0.29397583c-11.89151 -0.54241943 -40.755905 22.598877 -56.249344 -2.960617c-15.493439 -25.559494 -24.07962 -152.17236 -36.71129 -150.39633c-12.631668 1.7760296 -30.986877 128.48643 -39.078735 161.05249c-8.091866 32.566055 -4.7357864 21.712158 -9.472443 34.34384z" fill-rule="nonzero"></path><path stroke="#000000" stroke-width="2.0" stroke-linejoin="round" stroke-linecap="butt" d="m76.973755 213.16011c-4.736656 12.631668 -11.842087 24.670166 -18.94751 41.446182c-7.105423 16.776031 -17.56649 34.933502 -23.68504 59.20999c-6.1185455 24.276459 -12.63167 58.81714 -13.026245 86.44882c-0.39457512 27.631653 1.5796146 55.26245 10.6587925 79.34119c9.07918 24.078735 22.500437 49.341644 43.81627 65.131256c21.315842 15.789551 43.81584 25.066467 84.078735 29.606262c40.26291 4.539856 119.9987 12.829834 157.4987 -2.3674316c37.5 -15.197266 59.408997 -44.210876 67.50131 -88.816284c8.092285 -44.605408 -12.039368 -132.63211 -18.94751 -178.81625c-6.908142 -46.184174 -16.185486 -56.052063 -22.501312 -98.28873c-6.3158264 -42.23665 -10.262024 -132.03894 -15.393707 -155.13123c-5.1316833 -23.092302 -7.10672 -3.3565178 -15.396332 16.577427c-8.289581 19.933945 -21.167084 85.70735 -34.341187 103.026245c-13.174103 17.318893 -34.736237 0.7882843 -44.70343 0.887146c-9.967194 0.098861694 -3.2082214 0.24845886 -15.099731 -0.29397583c-11.89151 -0.54241943 -40.755905 22.598877 -56.249344 -2.960617c-15.493439 -25.559494 -24.07962 -152.17236 -36.71129 -150.39633c-12.631668 1.7760296 -30.986877 128.48643 -39.078735 161.05249c-8.091866 32.566055 -4.7357864 21.712158 -9.472443 34.34384z" fill-rule="nonzero"></path><path fill="#ffffff" d="m98.88189 246.90814l0 0c0 -18.638535 15.109512 -33.74803 33.74804 -33.74803l0 0c8.950531 0 17.53447 3.5555878 23.86345 9.884567c6.3289948 6.3289795 9.8845825 14.912918 9.8845825 23.863464l0 0c0 18.63852 -15.109512 33.748016 -33.74803 33.748016l0 0c-18.638527 0 -33.74804 -15.109497 -33.74804 -33.748016z" fill-rule="nonzero"></path><path stroke="#000000" stroke-width="2.0" stroke-linejoin="round" stroke-linecap="butt" d="m98.88189 246.90814l0 0c0 -18.638535 15.109512 -33.74803 33.74804 -33.74803l0 0c8.950531 0 17.53447 3.5555878 23.86345 9.884567c6.3289948 6.3289795 9.8845825 14.912918 9.8845825 23.863464l0 0c0 18.63852 -15.109512 33.748016 -33.74803 33.748016l0 0c-18.638527 0 -33.74804 -15.109497 -33.74804 -33.748016z" fill-rule="nonzero"></path><path fill="#ffffff" d="m237.38058 246.90814l0 0c0 -18.638535 15.109497 -33.74803 33.748016 -33.74803l0 0c8.950531 0 17.534485 3.5555878 23.863464 9.884567c6.3289795 6.3289795 9.8845825 14.912918 9.8845825 23.863464l0 0c0 18.63852 -15.109528 33.748016 -33.748047 33.748016l0 0c-18.63852 0 -33.748016 -15.109497 -33.748016 -33.748016z" fill-rule="nonzero"></path><path stroke="#000000" stroke-width="2.0" stroke-linejoin="round" stroke-linecap="butt" d="m237.38058 246.90814l0 0c0 -18.638535 15.109497 -33.74803 33.748016 -33.74803l0 0c8.950531 0 17.534485 3.5555878 23.863464 9.884567c6.3289795 6.3289795 9.8845825 14.912918 9.8845825 23.863464l0 0c0 18.63852 -15.109528 33.748016 -33.748047 33.748016l0 0c-18.63852 0 -33.748016 -15.109497 -33.748016 -33.748016z" fill-rule="nonzero"></path><path fill="#000000" d="m123.59055 246.90814l0 0c0 -4.6531067 4.047058 -8.425201 9.039375 -8.425201l0 0c4.9922943 0 9.039368 3.7720947 9.039368 8.425201l0 0c0 4.6531067 -4.0470734 8.425186 -9.039368 8.425186l0 0c-4.992317 0 -9.039375 -3.7720795 -9.039375 -8.425186z" fill-rule="nonzero"></path><path stroke="#000000" stroke-width="2.0" stroke-linejoin="round" stroke-linecap="butt" d="m123.59055 246.90814l0 0c0 -4.6531067 4.047058 -8.425201 9.039375 -8.425201l0 0c4.9922943 0 9.039368 3.7720947 9.039368 8.425201l0 0c0 4.6531067 -4.0470734 8.425186 -9.039368 8.425186l0 0c-4.992317 0 -9.039375 -3.7720795 -9.039375 -8.425186z" fill-rule="nonzero"></path><path fill="#000000" d="m262.08923 246.90814l0 0c0 -4.6531067 4.047058 -8.425201 9.039368 -8.425201l0 0c4.9923096 0 9.039368 3.7720947 9.039368 8.425201l0 0c0 4.6531067 -4.047058 8.425186 -9.039368 8.425186l0 0c-4.9923096 0 -9.039368 -3.7720795 -9.039368 -8.425186z" fill-rule="nonzero"></path><path stroke="#000000" stroke-width="2.0" stroke-linejoin="round" stroke-linecap="butt" d="m262.08923 246.90814l0 0c0 -4.6531067 4.047058 -8.425201 9.039368 -8.425201l0 0c4.9923096 0 9.039368 3.7720947 9.039368 8.425201l0 0c0 4.6531067 -4.047058 8.425186 -9.039368 8.425186l0 0c-4.9923096 0 -9.039368 -3.7720795 -9.039368 -8.425186z" fill-rule="nonzero"></path><path fill="#000000" fill-opacity="0.0" d="m98.301834 559.5407l-8.314957 11.24408" fill-rule="nonzero"></path><path stroke="#000000" stroke-width="2.0" stroke-linejoin="round" stroke-linecap="butt" d="m98.301834 559.5407l-8.314957 11.24408" fill-rule="nonzero"></path><path fill="#000000" fill-opacity="0.0" d="m98.88189 559.5407l-2.9606323 13.322815" fill-rule="nonzero"></path><path stroke="#000000" stroke-width="2.0" stroke-linejoin="round" stroke-linecap="butt" d="m98.88189 559.5407l-2.9606323 13.322815" fill-rule="nonzero"></path><path fill="#000000" fill-opacity="0.0" d="m98.88189 559.5407l5.322838 13.322815" fill-rule="nonzero"></path><path stroke="#000000" stroke-width="2.0" stroke-linejoin="round" stroke-linecap="butt" d="m98.88189 559.5407l5.322838 13.322815" fill-rule="nonzero"></path><path fill="#000000" fill-opacity="0.0" d="m307.08026 576.5786l-3.433075 13.543335" fill-rule="nonzero"></path><path stroke="#000000" stroke-width="2.0" stroke-linejoin="round" stroke-linecap="butt" d="m307.08026 576.5786l-3.433075 13.543335" fill-rule="nonzero"></path><path fill="#000000" fill-opacity="0.0" d="m307.6169 576.3585l2.330719 13.448853" fill-rule="nonzero"></path><path stroke="#000000" stroke-width="2.0" stroke-linejoin="round" stroke-linecap="butt" d="m307.6169 576.3585l2.330719 13.448853" fill-rule="nonzero"></path><path fill="#000000" fill-opacity="0.0" d="m307.6169 576.3585l9.984253 10.299194" fill-rule="nonzero"></path><path stroke="#000000" stroke-width="2.0" stroke-linejoin="round" stroke-linecap="butt" d="m307.6169 576.3585l9.984253 10.299194" fill-rule="nonzero"></path></g></svg>

